<?xml version="1.0" encoding="utf-8"?> <!-- Generator: Adobe Illustrator 24.0.0, SVG Export Plug-In . SVG Version: 6.00 Build 0) --> <svg version="1.1" id="Layer_1" xmlns="http://www.w3.org/2000/svg" xmlns:xlink="http://www.w3.org/1999/xlink" x="0px" y="0px" viewBox="0 0 566.93 566.93" style="enable-background:new 0 0 566.93 566.93;" xml:space="preserve"> <style type="text/css"> .st0{fill:#FFFFFF;} .st1{fill:#2C93D1;} .st2{fill:#FECF4C;} .st3{fill:#EC293A;} .st4{fill:#EA2A3A;} .st5{fill:#E11E27;} </style> <g> <ellipse transform="matrix(0.9897 -0.1435 0.1435 0.9897 -36.415 43.9316)" class="st0" cx="286.44" cy="274.49" rx="197.86" ry="130.37"/> <g> <circle class="st0" cx="524.35" cy="191.35" r="12.92"/> <path class="st1" d="M295.25,394.61c-95.41,8.04-178.71-25.36-204.1-77.49c19.35,67.54,115.41,106.09,220.59,86.71 c56.78-10.46,105.05-35.75,136.52-67.81C413.66,366.81,358.63,389.28,295.25,394.61z"/> <path class="st2" d="M276.23,152.48c100.33-7.73,186.94,30.21,206.9,87.08c-14.9-71.19-113.11-113.2-221.38-94.05 c-40.59,7.18-76.89,21.95-105.88,41.4C188.58,168.61,230.24,156.02,276.23,152.48z"/> <path class="st3" d="M183.01,193.13l-4.97-11.43l2.52-1.1l4.97,11.43L183.01,193.13z"/> <path class="st3" d="M194.23,177.33c-0.97,0.36-1.59,0.99-1.86,1.89c-0.27,0.9-0.17,1.97,0.3,3.22c0.98,2.6,2.48,3.52,4.51,2.76 c0.85-0.32,1.81-0.91,2.86-1.78l0.78,2.08c-0.85,0.77-1.88,1.39-3.11,1.85c-1.76,0.66-3.31,0.65-4.63-0.02 c-1.32-0.68-2.34-1.98-3.07-3.91c-0.45-1.21-0.63-2.36-0.51-3.45c0.12-1.08,0.51-2.03,1.19-2.84c0.68-0.81,1.59-1.43,2.75-1.87 c1.18-0.44,2.47-0.61,3.86-0.51l-0.07,2.32c-0.53-0.04-1.06-0.05-1.57-0.03C195.15,177.07,194.67,177.16,194.23,177.33z"/> <path class="st3" d="M215.04,181.37l-7.12,2.23l-3.72-11.89l7.12-2.23l0.65,2.07l-4.5,1.41l0.82,2.61l4.19-1.31l0.65,2.07 l-4.19,1.31l0.96,3.07l4.5-1.41L215.04,181.37z"/> <path class="st3" d="M234.21,165.73c-1.01,0.22-1.71,0.76-2.11,1.61c-0.39,0.85-0.45,1.93-0.16,3.23c0.6,2.71,1.95,3.84,4.07,3.37 c0.89-0.2,1.92-0.65,3.09-1.35l0.48,2.16c-0.95,0.64-2.06,1.11-3.34,1.39c-1.84,0.41-3.37,0.18-4.58-0.68 c-1.21-0.86-2.04-2.29-2.48-4.3c-0.28-1.26-0.28-2.43-0.01-3.48c0.27-1.06,0.8-1.94,1.58-2.64c0.79-0.71,1.78-1.19,2.99-1.46 c1.23-0.27,2.53-0.26,3.89,0.04l-0.4,2.29c-0.52-0.11-1.04-0.2-1.55-0.25C235.16,165.61,234.67,165.63,234.21,165.73z"/> <path class="st3" d="M248.82,168.69l0.77,4.72l-2.71,0.44l-2-12.3l3.73-0.61c1.74-0.28,3.07-0.19,4.01,0.29 c0.93,0.47,1.5,1.33,1.7,2.57c0.12,0.72,0.01,1.4-0.31,2.03c-0.32,0.63-0.84,1.17-1.54,1.61c2.37,2.45,3.92,4.03,4.63,4.75 l-3.01,0.49l-3.82-4.22L248.82,168.69z M248.47,166.57l0.87-0.14c0.86-0.14,1.47-0.38,1.83-0.72c0.36-0.34,0.5-0.81,0.4-1.4 c-0.09-0.58-0.37-0.96-0.83-1.14c-0.46-0.18-1.12-0.2-2-0.06l-0.82,0.13L248.47,166.57z"/> <path class="st3" d="M270.66,170.63l-7.42,0.8l-1.33-12.39l7.42-0.8l0.23,2.15l-4.69,0.5l0.29,2.72l4.36-0.47l0.23,2.15 l-4.36,0.47l0.34,3.19l4.69-0.5L270.66,170.63z"/> <path class="st3" d="M285.81,169.63l-1.09-2.91l-4.72,0.24l-0.79,3.01l-2.96,0.15l3.93-12.73l3.36-0.17l5.22,12.26L285.81,169.63z M283.96,164.54c-1-2.64-1.57-4.13-1.7-4.48c-0.13-0.35-0.22-0.62-0.28-0.82c-0.16,0.74-0.62,2.56-1.4,5.47L283.96,164.54z"/> <path class="st3" d="M300.39,169.47l-2.92-9.84l-0.08,0c0.07,1.99,0.1,3.32,0.09,3.98l-0.12,5.79l-2.46-0.05l0.25-12.46l3.74,0.07 l2.88,9.59l0.05,0l3.44-9.46l3.74,0.07l-0.25,12.46l-2.56-0.05l0.12-5.9c0.01-0.28,0.02-0.6,0.03-0.96 c0.02-0.36,0.08-1.33,0.18-2.89l-0.08,0l-3.54,9.69L300.39,169.47z"/> <path class="st3" d="M242.92,384.5c-0.15,1.12-0.67,1.94-1.56,2.47c-0.89,0.53-2.05,0.7-3.48,0.51c-1.32-0.18-2.45-0.59-3.39-1.22 l0.33-2.43c0.78,0.49,1.45,0.84,2.01,1.07c0.56,0.23,1.07,0.38,1.55,0.44c0.57,0.08,1.03,0.03,1.37-0.15 c0.34-0.18,0.54-0.48,0.59-0.92c0.03-0.24,0-0.47-0.11-0.67c-0.11-0.21-0.28-0.42-0.52-0.63c-0.24-0.21-0.73-0.56-1.49-1.05 c-0.71-0.46-1.23-0.88-1.56-1.25c-0.33-0.38-0.58-0.8-0.75-1.26c-0.17-0.46-0.21-0.99-0.13-1.57c0.15-1.09,0.64-1.9,1.46-2.42 c0.83-0.52,1.89-0.7,3.2-0.52c0.64,0.09,1.24,0.25,1.81,0.48c0.56,0.23,1.14,0.53,1.74,0.89l-1.12,1.92 c-0.62-0.36-1.14-0.62-1.56-0.79c-0.42-0.17-0.83-0.28-1.25-0.33c-0.5-0.07-0.89,0-1.19,0.19c-0.3,0.19-0.47,0.48-0.52,0.85 c-0.03,0.23,0,0.44,0.08,0.63c0.08,0.19,0.23,0.38,0.44,0.57c0.21,0.19,0.72,0.56,1.54,1.09c1.08,0.71,1.8,1.37,2.15,1.98 C242.91,382.99,243.03,383.7,242.92,384.5z"/> <path class="st3" d="M249.58,388.64l1.05-12.42l2.63,0.22l-1.05,12.42L249.58,388.64z"/> <path class="st3" d="M271.38,389.71l-3.36-0.08l-5.18-9.56l-0.08,0c0.07,1.67,0.09,2.86,0.07,3.57l-0.15,5.86l-2.36-0.06 l0.31-12.46l3.33,0.08l5.18,9.47l0.06,0c-0.04-1.62-0.06-2.77-0.04-3.44l0.15-5.9l2.38,0.06L271.38,389.71z"/> <path class="st3" d="M284.4,378.93c-0.99,0.04-1.75,0.45-2.26,1.22c-0.51,0.77-0.74,1.82-0.69,3.16c0.12,2.78,1.22,4.12,3.3,4.03 c0.87-0.04,1.92-0.3,3.15-0.79l0.09,2.21c-1,0.47-2.14,0.73-3.4,0.78c-1.81,0.08-3.22-0.41-4.22-1.47s-1.55-2.61-1.64-4.67 c-0.06-1.29,0.13-2.44,0.56-3.43c0.43-0.99,1.08-1.77,1.94-2.33c0.86-0.56,1.88-0.86,3.07-0.91c1.21-0.05,2.44,0.19,3.68,0.72 l-0.76,2.18c-0.47-0.2-0.95-0.38-1.43-0.52C285.32,378.97,284.85,378.91,284.4,378.93z"/> <path class="st3" d="M302.69,387.97l-7.14,0.68l-1.18-12.4l7.14-0.68l0.21,2.16l-4.51,0.43l0.26,2.72l4.2-0.4l0.2,2.16l-4.2,0.4 l0.3,3.2l4.51-0.43L302.69,387.97z"/> <path class="st3" d="M324.93,384.47l-2.59,0.49l-1.35-7.08l-0.2-1.17l-0.2-1.28c-0.35,0.51-0.59,0.85-0.73,1.02l-1.19,1.4 l-1.54-1.32l3.35-3.89l2.13-0.41L324.93,384.47z"/> <path class="st3" d="M344.2,372.46c0.64,2.37,0.62,4.27-0.06,5.71c-0.68,1.44-2.04,2.43-4.06,2.98c-0.71,0.19-1.26,0.3-1.65,0.32 l-0.55-2.04c0.49-0.01,0.99-0.08,1.5-0.22c0.85-0.23,1.52-0.54,2-0.94c0.48-0.4,0.79-0.9,0.94-1.52c0.15-0.61,0.11-1.4-0.09-2.35 l-0.1,0.03c-0.18,0.6-0.45,1.06-0.81,1.38c-0.36,0.32-0.85,0.57-1.48,0.73c-1.05,0.28-1.96,0.17-2.75-0.34 c-0.79-0.51-1.34-1.36-1.66-2.56c-0.35-1.29-0.26-2.41,0.27-3.35c0.53-0.95,1.43-1.59,2.69-1.93c0.89-0.24,1.72-0.24,2.5,0 c0.78,0.24,1.45,0.7,2.02,1.4C343.47,370.47,343.9,371.36,344.2,372.46z M338.97,370.4c-0.53,0.14-0.89,0.43-1.09,0.88 c-0.2,0.44-0.21,1-0.02,1.68c0.16,0.58,0.42,1.01,0.78,1.27s0.81,0.33,1.36,0.18c0.52-0.14,0.91-0.43,1.19-0.86 c0.28-0.44,0.35-0.87,0.24-1.31c-0.18-0.65-0.5-1.16-0.96-1.52C340,370.37,339.51,370.26,338.97,370.4z"/> <path class="st3" d="M364.15,370.62l-1.41,0.5l0.87,2.43l-2.42,0.87l-0.87-2.43l-5.01,1.79l-0.62-1.72l2.44-9.41l2.29-0.82 l2.64,7.38l1.41-0.51L364.15,370.62z M359.63,370.06l-0.71-1.99c-0.12-0.33-0.28-0.82-0.48-1.46c-0.2-0.64-0.31-1.02-0.33-1.12 l-0.06,0.02c-0.04,0.51-0.13,1.02-0.25,1.54l-0.99,4.02L359.63,370.06z"/> <path class="st3" d="M372.63,364.26c-1.02-2.24-1.31-4.13-0.86-5.66c0.45-1.53,1.62-2.72,3.51-3.59c0.65-0.3,1.17-0.49,1.57-0.58 l0.87,1.92c-0.51,0.11-0.99,0.26-1.44,0.47c-0.82,0.38-1.44,0.8-1.84,1.29c-0.41,0.49-0.63,1.03-0.67,1.63s0.13,1.36,0.49,2.28 l0.1-0.05c0.11-1.11,0.73-1.93,1.86-2.44c1.01-0.46,1.95-0.51,2.82-0.13c0.86,0.37,1.55,1.12,2.06,2.24 c0.55,1.21,0.65,2.32,0.29,3.34c-0.36,1.02-1.14,1.8-2.36,2.35c-0.84,0.38-1.66,0.52-2.46,0.42c-0.8-0.1-1.54-0.45-2.22-1.04 C373.68,366.13,373.11,365.31,372.63,364.26z M378.12,365.45c0.51-0.23,0.83-0.58,0.94-1.05c0.12-0.47,0.03-1.02-0.26-1.66 c-0.25-0.55-0.58-0.93-0.98-1.13c-0.4-0.2-0.86-0.18-1.38,0.05c-0.49,0.22-0.83,0.57-1.03,1.04c-0.2,0.47-0.2,0.92-0.01,1.34 c0.28,0.61,0.68,1.06,1.19,1.34C377.11,365.65,377.62,365.67,378.12,365.45z"/> <path class="st4" d="M315.6,253.96c-3.83-7.29-6.19-15.73-5.51-24.07c0.83-10.15,6.17-20.15,13.9-26.63 c9.87-8.27,23.65-10.81,36.76-10.84c9.19-0.02,18.05,1.2,26.57,3.96c1.32,0.43,2.64,0.85,3.96,1.28 c-3.42,15.8-6.84,31.6-10.26,47.4c2.83-5.18,6.95-10.02,12.25-12.79c6.94-3.64,15.9-3.74,23.19-0.77 c2.31,0.94,4.46,2.19,6.43,3.66c1.64-5.65,3.28-11.29,4.93-16.94c0.53-1.82,1.67-3.4,3.22-4.48c8.48-5.9,18.01-10.49,27.94-13.23 c0.47-0.13,0.94-0.26,1.42-0.38c2.88-0.74,5.94,0.12,8,2.26c2.07,2.14,2.83,5.22,1.99,8.08c-0.56,1.91-1.09,3.83-1.58,5.77 c-0.7,2.78-1.34,5.57-1.89,8.38c3.43-3.49,7.53-6.37,12.14-8.28c6.53-2.7,14.11-3.42,20.63-1.04 c8.16,2.97,14.66,10.79,17.44,19.09c4.07,12.14,0.19,25.32-5.18,37.47c-4.31,9.75-9.58,18.83-17.91,24.51 c-3.5,2.38-7.53,4.17-11.74,4.95c-4.24,0.79-8.64,0.56-12.82-0.49c-3.19-0.81-6.24-2.09-9.04-3.78c-1.65,2.19-3.6,4.14-5.81,5.83 c-4.34,3.3-9.73,5.57-15.11,5.58c-2.87,0.01-5.74-0.63-8.42-1.72c-3.66-1.49-6.97-3.83-9.64-6.7c-3.2,5.63-7.82,10.73-13.49,13.98 c-5.44,3.11-11.84,4.51-18.13,4.2c-7.22-0.35-14.28-2.95-20.23-6.87c-6.1,5.7-13.17,10.44-20.81,13.93 c-7.51,3.44-15.57,5.68-23.86,6.11c-7.38,0.38-14.94-0.68-21.57-3.82c-5.88-2.78-11.02-7.18-15.08-12.22 c-3.12,8.91-8.76,17.15-16.48,23.03c-5.27,4.02-11.51,6.94-17.95,7.2c-6.5,0.27-13.19-2.16-18.66-5.68 c-2.11,4.5-5.4,8.82-9.64,11.36c-4.23,2.54-9.41,3.31-14.51,3.35c-4.91,0.04-9.74-0.6-14.1-2.54c-1.52-0.67-2.98-1.51-4.36-2.43 c0.04,2.34,0.09,4.69,0.13,7.03c-9.29,2.32-18.59,4.64-27.88,6.95c-2.97,0.68-6.06,0.89-9.13,0.51 c-5.61-0.7-11.13-3.41-14.91-7.61c-3.14-3.5-5.08-8.02-5.98-12.58c-4.75,7.45-10.64,14.25-17.39,20.02 c-7.5,6.41-16.06,11.55-25.45,14.85c-9.94,3.49-20.81,4.91-31.11,2.36c-11.1-2.75-21.53-10.12-26.86-20.27 c-6.05-11.49-5.57-26.55,0.2-38.12c3.58-7.19,9.21-13.03,15.65-17.78c10.55-7.79,23.28-12.67,36.13-14.12 c3.1-16.68,6.21-33.36,9.31-50.04c13.01-8.86,27.98-13.98,44.01-17.11c7.99-1.56,16.25-2.63,23.54,0 c5.27,1.9,10.04,5.74,13.78,10.02c8.81-6.89,19.92-11.94,31.28-12.08c10.85-0.13,21.92,4.21,29.84,11.6 c5.19,4.83,9.03,10.97,11.6,17.47c1.09,0.97,2.09,2.04,2.97,3.2c1.35,1.78,2.42,3.77,3.19,5.86c5.36-1.78,11.36-2.54,16.9-1.26 c6.86,1.57,13.01,6.24,17.44,11.65c2.92-4.08,6.56-7.74,10.8-10.49C305.15,256.77,310.33,254.89,315.6,253.96z"/> <g> <path class="st5" d="M524.48,179.12c6.79-0.02,12.18,5.44,12.19,12.24c-0.05,6.9-5.46,12.28-12.4,12.23 c-6.78,0.01-12.28-5.39-12.24-12.27c-0.02-6.83,5.52-12.26,12.36-12.22L524.48,179.12z M524.38,180.97 c-5.57,0.01-10.01,4.64-10,10.32c-0.06,5.87,4.46,10.44,10.01,10.45c5.52,0.05,9.97-4.52,9.97-10.38 c0.03-5.72-4.36-10.32-9.94-10.37L524.38,180.97z M521.99,198.41l-2.22,0.01l0.03-13.64c1.16-0.15,2.29-0.33,3.94-0.31 c2.15,0,3.5,0.42,4.35,1.03c0.79,0.66,1.21,1.57,1.28,2.83c-0.04,1.82-1.23,2.87-2.76,3.37l0.02,0.08 c1.18,0.19,2.08,1.29,2.32,3.36c0.31,2.08,0.67,2.91,0.91,3.29l-2.34,0c-0.38-0.43-0.72-1.65-1-3.42 c-0.27-1.74-1.18-2.48-2.96-2.51l-1.53,0.01L521.99,198.41z M522.01,190.85l1.62,0.08c1.78-0.02,3.39-0.73,3.4-2.33 c0.03-1.21-0.88-2.47-3.37-2.45c-0.73,0.02-1.23,0.08-1.63,0.12L522.01,190.85z"/> </g> <path class="st0" d="M237.46,290.55c-0.18-0.89-0.74-1.72-1.41-2.33c-1.32,0.55-2.71,0.91-4.14,1.1 c-1.56,0.21-3.17,0.22-4.67-0.21c-0.76-0.22-1.49-0.56-2.26-0.71c-0.48-0.09-0.97-0.11-1.45-0.04c-0.57,0.09-1.12,0.3-1.59,0.6 c-0.87,0.56-1.5,1.44-2.23,2.19c-1.78,1.83-4.18,2.9-6.61,3.78c-2.05,0.74-4.13,1.35-6.26,1.45c-2.94,0.14-5.97-0.69-8.67-1.95 c-1.4-0.65-2.71-1.42-4-2.3c-0.42-0.29-0.84-0.58-1.31-0.74c-0.55-0.19-1.19-0.19-1.77-0.07c-0.9,0.19-1.7,0.68-2.55,1.03 c-0.73,0.3-1.51,0.5-2.3,0.57c-1.24,0.1-2.52-0.14-3.66-0.61c-0.57-0.45-1.28-0.78-2.01-0.83c-0.72-0.05-1.46,0.17-2.05,0.6 c-0.81,0.59-1.33,1.59-1.43,2.58c-0.09,0.86,0.14,1.71,0.38,2.55c0.84,2.87,1.89,5.55,2.97,8.34c0.74,1.94,1.5,3.93,2.88,5.41 c1.07,1.15,2.51,1.99,3.97,2.58c0.91,4.6,1.89,9.19,2.95,13.77c0.83,3.57,1.71,7.13,2.63,10.68c0.31,1.09,0.84,2.17,1.61,3 c0.91,0.98,2.17,1.61,3.44,2.11c1.96,0.77,3.97,1.23,6.02,1.5c2.22,0.3,4.48,0.38,6.7,0.12c2.39-0.28,4.72-0.96,6.86-2.19 c1.39-0.8,2.69-1.83,3.4-3.18c0.41-0.79,0.61-1.69,0.81-2.58c0.9-4.06,1.66-8.04,2.42-12.05c0.84-4.43,1.67-8.91,2.45-13.37 c1.76-0.64,3.49-1.65,4.69-3.06c1.16-1.36,1.81-3.09,2.49-4.79c1.15-2.89,2.34-5.68,3.15-8.63c0.26-0.93,0.47-1.86,0.57-2.83 C237.55,291.54,237.56,291.04,237.46,290.55z M228.91,297.86c-0.42,1.07-0.85,2.13-1.28,3.2c-0.16,0.4-0.31,0.79-0.48,1.19 c-0.12,0.3-0.25,0.6-0.39,0.9c-0.1,0.2-0.2,0.39-0.31,0.58c-0.04,0.06-0.07,0.12-0.11,0.17c-0.03,0.04-0.05,0.07-0.08,0.1 c-0.07,0.08-0.14,0.15-0.22,0.22c-0.13,0.11-0.27,0.21-0.41,0.3c-0.19,0.12-0.38,0.22-0.58,0.32c-0.22,0.11-0.45,0.2-0.69,0.29 c-1.2,0.43-2.41,0.87-3.61,1.3c-0.22,1.26-0.44,2.52-0.66,3.78c-0.54,3.12-1.12,6.24-1.7,9.36c-0.29,1.54-0.58,3.08-0.87,4.62 c-0.26,1.39-0.53,2.79-0.8,4.18c-0.27,1.38-0.55,2.77-0.84,4.15c-0.14,0.69-0.29,1.38-0.44,2.07c-0.08,0.37-0.16,0.73-0.24,1.1 c-0.04,0.18-0.08,0.35-0.13,0.53c-0.05,0.04-0.1,0.08-0.15,0.12c-0.1,0.07-0.19,0.14-0.29,0.21c-0.13,0.08-0.26,0.16-0.39,0.24 c-0.63,0.37-1.31,0.65-2.01,0.87c-0.76,0.24-1.54,0.39-2.33,0.48c-0.81,0.1-1.62,0.12-2.43,0.11c-0.87-0.02-1.74-0.09-2.61-0.21 c-0.79-0.11-1.57-0.25-2.35-0.44c-0.73-0.18-1.44-0.4-2.14-0.67c-0.16-0.06-0.31-0.12-0.46-0.19c-0.11-0.05-0.23-0.1-0.34-0.16 c-0.06-0.03-0.12-0.07-0.18-0.1c-0.03-0.06-0.07-0.15-0.1-0.26c-0.9-3.46-1.75-6.93-2.56-10.4c-1.04-4.5-2.01-9.02-2.91-13.55 c-0.23-1.18-0.47-2.36-0.7-3.54c-1.12-0.44-2.24-0.89-3.36-1.33c-0.24-0.09-0.47-0.2-0.7-0.32c-0.18-0.1-0.36-0.2-0.53-0.32 c-0.11-0.08-0.21-0.16-0.31-0.25c-0.05-0.05-0.09-0.09-0.13-0.15c-0.06-0.08-0.12-0.16-0.17-0.25c-0.08-0.13-0.15-0.26-0.22-0.39 c-0.16-0.3-0.29-0.61-0.43-0.92c-0.22-0.53-0.43-1.07-0.64-1.61c-0.46-1.21-0.93-2.41-1.38-3.62c0.89,0.03,1.79-0.03,2.67-0.18 c0.91-0.15,1.8-0.39,2.65-0.71c0.31-0.11,0.61-0.24,0.91-0.37c1.34,0.86,2.74,1.63,4.19,2.29c0.93,0.42,1.89,0.8,2.86,1.13 c1.01,0.34,2.04,0.62,3.08,0.83c1.08,0.22,2.18,0.38,3.29,0.44c0.57,0.03,1.14,0.05,1.72,0.03c0.47-0.01,0.93-0.04,1.4-0.08 c0.8-0.07,1.59-0.19,2.37-0.35c0.73-0.15,1.46-0.32,2.18-0.53c0.67-0.19,1.34-0.4,2-0.63c0.32-0.11,0.64-0.23,0.97-0.34 c0.38-0.14,0.75-0.28,1.13-0.43c0.81-0.32,1.61-0.67,2.39-1.06c0.55-0.27,1.09-0.57,1.62-0.88c0.88-0.53,1.72-1.12,2.51-1.78 c0.42-0.35,0.83-0.73,1.21-1.12c0.17-0.18,0.34-0.35,0.51-0.54c0.14,0.05,0.28,0.09,0.43,0.13c0.24,0.07,0.47,0.13,0.71,0.19 c0.29,0.07,0.59,0.13,0.89,0.19c0.57,0.1,1.14,0.17,1.72,0.21c0.32,0.02,0.64,0.04,0.95,0.04 C229.37,296.67,229.14,297.26,228.91,297.86z"/> <path class="st0" d="M232.13,264.42c0.3,0.25,0.6,0.52,0.87,0.8c0.26,0.27,0.5,0.55,0.73,0.84c0.21,0.27,0.4,0.55,0.56,0.85 c0.18,0.32,0.34,0.66,0.46,1.01c0.16,0.44,0.27,0.9,0.33,1.37c0.06,0.47,0.08,0.94,0.05,1.41c-0.03,0.44-0.1,0.88-0.23,1.3 c-0.13,0.44-0.31,0.85-0.53,1.25c-0.24,0.43-0.53,0.83-0.86,1.2c-0.32,0.36-0.69,0.69-1.08,0.98c-0.18,0.13-0.37,0.26-0.57,0.37 c-0.14,0.08-0.28,0.15-0.43,0.22c-0.27,0.12-0.54,0.22-0.82,0.31c-0.32,0.1-0.65,0.17-0.98,0.23c-0.37,0.06-0.74,0.11-1.12,0.13 c-0.74,0.05-1.48,0.02-2.22-0.05c-0.87-0.09-1.74-0.25-2.58-0.48c-1.6-0.43-3.2-0.87-4.8-1.3c-1.13,1.21-2.27,2.41-3.4,3.62 c-0.8,0.85-1.69,1.61-2.65,2.26c-0.46,0.31-0.94,0.59-1.44,0.84c-0.36,0.18-0.74,0.35-1.12,0.49c-0.71,0.27-1.45,0.48-2.19,0.63 c-0.75,0.14-1.51,0.23-2.27,0.24c-0.74,0.01-1.48-0.04-2.21-0.17c-0.75-0.13-1.48-0.32-2.2-0.58c-0.76-0.27-1.5-0.6-2.22-0.98 c-0.73-0.39-1.44-0.84-2.11-1.33c-1.13-0.82-2.25-1.64-3.38-2.46c-1.33,0.42-2.66,0.84-3.99,1.26c-0.5,0.16-1.02,0.29-1.54,0.38 c-0.65,0.12-1.31,0.2-1.96,0.24c-0.7,0.04-1.39,0.03-2.08-0.05c-0.58-0.07-1.15-0.18-1.71-0.37c-0.25-0.08-0.49-0.18-0.72-0.29 c-0.27-0.13-0.54-0.29-0.79-0.46c-0.27-0.18-0.53-0.39-0.77-0.61c-0.26-0.23-0.5-0.48-0.73-0.75c-0.47-0.55-0.87-1.17-1.19-1.82 c-0.2-0.41-0.36-0.84-0.49-1.28c-0.1-0.34-0.18-0.68-0.23-1.02c-0.05-0.32-0.08-0.65-0.09-0.97c-0.01-0.28,0.01-0.56,0.04-0.84 c0.03-0.22,0.07-0.44,0.13-0.66c0.05-0.15,0.1-0.31,0.18-0.45c0.04-0.07,0.08-0.14,0.12-0.21c0.06-0.09,0.13-0.18,0.19-0.27 c0.19-0.23,0.39-0.45,0.61-0.65c0.27-0.25,0.56-0.48,0.87-0.69c1.88-1.3,2.35-3.88,1.05-5.75c-1.3-1.88-3.88-2.35-5.75-1.05 c-1.75,1.21-3.35,2.79-4.36,4.67c-1.84,3.43-1.7,7.87-0.2,11.67c1.56,3.95,4.6,7.2,8.32,8.83c3.07,1.34,6.61,1.57,9.94,1.12 c1.25-0.17,2.46-0.44,3.65-0.81c3.14,2.29,6.86,3.95,10.75,4.46c3.95,0.52,8.07-0.14,11.67-1.83c2.61-1.22,4.94-2.99,6.9-5.07 c4.48,1.22,9.7,1.27,13.9-0.88c3.4-1.75,6.13-4.95,7.3-8.62c1.12-3.51,0.82-7.45-0.71-10.75c-1.07-2.3-2.73-4.3-4.67-5.88 c-2.02-7.31-6.34-14.63-12.58-18.97c-3.93-2.73-8.62-4.29-13.49-4.87c-7.74-0.93-15.94,0.58-22.22,4.97 c-3.59,2.51-6.54,5.96-8.52,9.84c-0.75,1.47-1.35,3-1.83,4.56c-0.66,2.19,0.58,4.49,2.77,5.15c2.19,0.66,4.49-0.58,5.15-2.77 c0.23-0.76,0.5-1.51,0.82-2.23c0.37-0.85,0.81-1.66,1.3-2.44c0.56-0.89,1.19-1.73,1.89-2.52c0.69-0.78,1.45-1.5,2.26-2.15 c0.74-0.59,1.52-1.12,2.34-1.58c0.81-0.46,1.65-0.85,2.52-1.19c0.91-0.35,1.83-0.65,2.78-0.88c0.71-0.18,1.43-0.32,2.15-0.43 c1.01-0.16,2.04-0.26,3.07-0.3c1.04-0.04,2.08-0.03,3.12,0.04c0.83,0.06,1.65,0.15,2.46,0.28c1.24,0.2,2.46,0.48,3.65,0.86 c1.11,0.36,2.2,0.8,3.24,1.34c0.49,0.26,0.97,0.54,1.44,0.85c0.39,0.26,0.77,0.53,1.14,0.82c0.72,0.57,1.4,1.19,2.04,1.86 c0.68,0.71,1.3,1.47,1.89,2.26c0.89,1.21,1.68,2.5,2.36,3.84c0.48,0.94,0.91,1.91,1.29,2.89c0.38,0.97,0.71,1.96,0.99,2.97 c0.23,0.84,0.47,1.69,0.7,2.53C230.77,263.32,231.45,263.87,232.13,264.42z"/> <path class="st0" d="M370.79,277.34c-0.23-6.6-1.62-13.56-5.58-18.46c-2.67-3.31-6.5-5.67-10.2-8.07c-3.84-2.49-7.55-5-10.27-8.77 c-2.01-2.78-3.47-6.25-3.01-9.52c0.43-3.01,2.5-5.86,5.13-7.64c2.55-1.72,5.63-2.44,8.64-2.25c5.71,0.35,11.16,3.93,14.78,8.27 c1.84-8.68,3.67-17.35,5.51-26.03c-7.26-0.97-12.86-1.25-18.76-0.75c-5.89,0.49-12.07,1.75-17.74,4.51 c-5.06,2.47-9.71,6.14-12.62,10.87c-3.11,5.04-4.26,11.29-3.24,17.18c0.97,5.62,3.91,10.91,8,14.64c3.38,3.08,7.55,5.1,11.55,7.54 c4.02,2.45,7.87,5.32,10.37,9.19c1.32,2.05,2.27,4.37,2.9,6.75c-10.32-8.53-14.88-10.21-18.99-11.33 c-7.88-2.15-14.1-2.26-20.1-0.73c-4.95,1.26-9.76,3.63-13.52,7.06c-3.66,3.34-6.33,7.68-7.63,13.26 c-1.45,6.19-1.22,13.9,1.09,19.63c1.4,3.47,3.56,6.22,6.17,8.42c5,4.22,11.63,6.45,18.13,6.68c8.84,0.31,17.42-3.1,25.2-7.44 c5.92-3.31,11.38-7.18,16.14-11.85c1.04-0.99,3.44-3.86,4.84-4.11c1.44-0.26,1.22,0.14,2.86,1.28c0.81,0.56,2.23,2.08,3.06,2.59 c-1.14-3.16-2.44-6-3.86-8.54C370.6,285.69,370.94,281.59,370.79,277.34z M355.03,283.37c-0.13,0.84-0.55,1.63-1.01,2.38 c-2.22,3.65-5.35,6.45-8.76,8.92c-3.67,2.66-7.68,4.93-12.14,5.77c-2.85,0.53-5.89,0.48-8.57-0.53c-3-1.13-5.54-3.44-7.3-6.24 c-1.17-1.87-1.91-3.96-2.06-6.06c-0.18-2.69,0.92-5.41,2.06-7.48c1.24-2.26,2.7-3.43,4.75-4.89c2.61-1.87,5.84-2.94,9.03-3.27 c4.91-0.5,7.96,0.06,12.82,1.69c3.14,1.05,7.53,2.83,9.96,5.65C354.78,280.4,355.24,281.99,355.03,283.37z"/> <path class="st0" d="M451.71,217.56c-4.34,1.1-8.85,2.58-11.68,5.2c-3.21,11.7-4.31,13.65-5.52,18.85 c-2.33,1.03-4.65,2.1-6.94,3.22c-0.7,2.59-1.01,5.3-0.95,7.97c2-0.82,4.02-1.62,6.04-2.4c-0.99,6.68-1.57,10.16-2.1,13.61 c-0.94,6.15-1.69,12.22-1.32,18.87c0.2,3.67,0.75,7.51,3.14,9.94c2.01,2.04,5.31,3.07,8.3,2.75c4.22-0.46,7.79-3.65,9.96-7.31 c1.41-2.38,2.22-4.97,2.83-7.54c0.27-1.16,0.51-2.31,0.34-3.61c-0.07-0.58-0.23-1.19-0.63-1.49c-0.36-0.27-0.9-0.3-1.4-0.23 c-0.56,0.07-1.05,0.27-1.49,0.54c-0.85,0.54-1.49,1.41-2.49,2.04c-1.02,0.65-2.41,1.06-3.5,0.85c-1.45-0.28-2.35-1.65-2.86-3.03 c-0.66-1.78-0.68-3.56-0.65-6.03c0.06-4.61,0.3-11.63,1.76-22.97c1.31-0.45,2.62-0.89,3.93-1.33c3.16-1.04,6.34-2.03,9.53-2.96 c0.49-1.7,0.83-3.45,0.99-5.2c0.13-1.39,0.16-2.8,0.09-4.19c-2.12,0.67-4.23,1.36-6.33,2.1c-2.21,0.77-4.41,1.58-6.6,2.42 C445.45,233.27,447.92,225.24,451.71,217.56z"/> <path class="st0" d="M107.16,248.82c-1.32,9.22-2.63,18.44-3.95,27.66c6.93-6.11,15.36-10.72,23.79-14.24 c5.87-2.45,11.75-4.38,18.9-4.01c3.75,0.2,7.86,1.03,9.54,3.44c1.62,2.31,1,6.08,0,9.73c-1.89,6.93-5.17,13.46-11.64,14.32 c-1.76,0.23-3.76,0.05-4.96-0.76c-3.68-2.49,0.17-10.84,3.05-15.08c-5.85,1.4-11.71,2.8-17.56,4.2c4,9.19,6.26,20.09,4.2,29.78 c-2.31,10.84-10.05,20.15-18.32,28.25c-4.54,4.45-9.25,8.53-15.46,10.12c-5.01,1.28-11.01,0.94-14.75-2.25 c-3.75-3.21-5.22-9.3-4.39-14.32c2.25-13.62,21.46-19.32,34.93-20.81c-7.35-1.24-14.82-1.29-22.37-0.35 c-13.97,1.74-28.23,6.86-37.23,18.06c-5.69,7.08-9.27,16.58-7.36,25.1c1.42,6.37,5.91,12.19,11.45,15.84 c10.99,7.25,26.14,6.01,38.75,0.57c21.11-9.1,35.13-29.94,39.89-51.15c0.59-2.63,1.04-5.27,1.35-7.94c0-1.78,0.48-3.72,1.81-5.01 c0.97-0.94,2.39-1.54,3.62-1.48c3.68,0.17,5.57,6.21,6,10.11c0.31,5.86,0.54,11.72,0.69,17.58c0.09,3.63,0.16,7.25,0.19,10.88 c-0.2,3.78,0.62,8.23,3.24,10.88c2.25,2.27,5.82,3.22,9.16,3.24c4.44,0.04,8.49-1.55,12.6-2.86c2.23-0.71,4.47-1.34,6.68-2.1 c-0.13-11.01-0.25-22.01-0.38-33.02c-2.49,1.44-5.18,2.25-8.21,2.67c-2.49,0.35-5.2,0.43-7.06-0.76c-1.97-1.26-3-3.96-3.44-6.68 c-0.76-4.75,0.29-9.56-1.91-12.98c-1.67-2.6-5.22-4.4-8.4-5.34c5.15-4.81,9.48-10.37,13.55-16.22c2.98-4.28,5.82-8.72,7.06-13.74 c1.05-4.23,0.96-8.88-0.76-12.98c-2.13-5.07-6.75-9.3-11.83-10.88c-5.38-1.68-11.26-0.39-16.99,0.95 C128.72,240,117.46,243.02,107.16,248.82z"/> <path class="st0" d="M470.9,241.74c0.53,0.2,0.9,0.81,1.06,1.4c0.34,1.23-0.17,2.41-0.6,3.59c-1.62,4.43-2.09,8.76-1.6,13.58 c0.37,3.63,1.29,7.54,3.99,9.52c2.03,1.49,5.08,1.89,7.65,1.26c4.41-1.06,7.45-5.11,9.32-9.45c2.09-4.86,2.72-10.1,0.53-14.84 c-0.76-1.64-1.86-3.22-3.39-3.86c-1.08-0.45-2.37-0.43-3.59-0.13c-0.9,0.22-1.77,0.59-2.6,0.53c-1.49-0.09-2.86-1.55-3.59-3.13 c-1.1-2.36-0.76-5,0.4-7.12c1.49-2.75,4.35-4.64,7.39-5.52c2.92-0.85,6-0.78,8.85,0.2c3.78,1.29,7.16,4.17,8.92,7.65 c2.15,4.25,1.89,9.4,1.13,14.31c-1.58,10.2-5.32,19.34-11.31,27.61c-2.97,4.1-6.49,7.99-11.13,9.74 c-4.13,1.56-9.13,1.43-13.14-0.62c-4.76-2.43-8.11-7.55-9.12-12.68c-1.22-6.21,1-12.44,2.87-18.58c1.28-4.22,2.4-8.41,5.1-11.96 c0.45-0.59,0.93-1.15,1.62-1.42C470.06,241.65,470.52,241.59,470.9,241.74z"/> <path class="st0" d="M387.49,258.36c0.53,0.2,0.9,0.81,1.06,1.4c0.34,1.23-0.17,2.41-0.6,3.59c-1.62,4.43-2.09,8.76-1.6,13.58 c0.37,3.63,1.29,7.54,3.99,9.52c2.03,1.49,5.08,1.89,7.65,1.26c4.41-1.06,7.45-5.11,9.32-9.45c2.09-4.86,2.72-10.1,0.53-14.84 c-0.76-1.64-1.86-3.22-3.39-3.86c-1.08-0.45-2.37-0.43-3.59-0.13c-0.9,0.22-1.77,0.59-2.6,0.53c-1.49-0.09-2.86-1.55-3.59-3.13 c-1.1-2.36-0.76-5,0.4-7.12c1.49-2.75,4.35-4.64,7.39-5.52c2.92-0.85,6-0.78,8.85,0.2c3.78,1.29,7.16,4.17,8.92,7.65 c2.15,4.25,1.89,9.4,1.13,14.31c-1.58,10.2-5.32,19.34-11.31,27.61c-2.97,4.1-6.49,7.99-11.13,9.74 c-4.13,1.56-9.13,1.43-13.14-0.62c-4.76-2.43-8.11-7.55-9.12-12.68c-1.22-6.21,1-12.44,2.87-18.58c1.28-4.22,2.4-8.41,5.1-11.96 c0.45-0.59,0.93-1.15,1.62-1.42C386.65,258.28,387.11,258.22,387.49,258.36z"/> <path class="st0" d="M247.06,286.36c0.53,0.2,0.9,0.81,1.06,1.4c0.34,1.23-0.17,2.41-0.6,3.59c-1.62,4.43-2.09,8.76-1.6,13.58 c0.37,3.63,1.29,7.54,3.99,9.52c2.03,1.49,5.08,1.89,7.65,1.26c4.41-1.06,7.45-5.11,9.32-9.45c2.09-4.86,2.72-10.1,0.53-14.84 c-0.76-1.64-1.86-3.22-3.39-3.86c-1.08-0.45-2.37-0.43-3.59-0.13c-0.9,0.22-1.77,0.59-2.6,0.53c-1.49-0.09-2.86-1.55-3.59-3.13 c-1.1-2.36-0.76-5,0.4-7.12c1.49-2.75,4.35-4.64,7.39-5.52c2.92-0.85,6-0.78,8.85,0.2c3.78,1.29,7.16,4.17,8.92,7.65 c2.15,4.25,1.89,9.4,1.13,14.31c-1.58,10.2-5.32,19.34-11.31,27.61c-2.97,4.1-6.49,7.99-11.13,9.74 c-4.13,1.56-9.13,1.43-13.14-0.62c-4.76-2.43-8.11-7.55-9.12-12.68c-1.22-6.21,1-12.44,2.87-18.58c1.28-4.22,2.4-8.41,5.1-11.96 c0.45-0.59,0.93-1.15,1.62-1.42C246.22,286.27,246.68,286.22,247.06,286.36z"/> </g> </g> </svg>